# xmcd
#
# Track frame offsets: 
#        150
#        18522
#        34444
#        59464
#        87894
#        112590
#        133151
#        154301
#        172301
#        190641
#
# Disc length: 2839 seconds
#
# Revision: 0
# Processed by: cddbd v1.5.2PL0 Copyright (c) Steve Scherf et al.
# Submitted via: ExactAudioCopy v1.0b3
#
DISCID=850b150a
DTITLE=Ewa Uryga - Running For My Life - Darek Janus Presents
DYEAR=1900
DGENRE=Gospel
TTITLE0=Running For My Life
TTITLE1=Consideration
TTITLE2=The Lord Will Make A Way
TTITLE3=Our Love
TTITLE4=Beams Of Heaven
TTITLE5=Jesus, Love Divine
TTITLE6=You've Got A Friend
TTITLE7=Sophistycated Lady
TTITLE8=God Bless The Child
TTITLE9=Hold Me In The Hollow Of Your Hand
EXTD=
EXTT0=
EXTT1=
EXTT2=
EXTT3=
EXTT4=
EXTT5=
EXTT6=
EXTT7=
EXTT8=
EXTT9=
PLAYORDER=
